HIERARCHY
ROOT Hips
{
  OFFSET 5.72205e-005 65.662 3.42586
  CHANNELS 6 Xposition Yposition Zposition Zrotation Xrotation Yrotation
  JOINT Chest
  {
    OFFSET 0 8.7983 -4.7612
    CHANNELS 6 Xposition Yposition Zposition Zrotation Xrotation Yrotation
    JOINT Chest2
    {
      OFFSET 0 8.0291 0.4195
      CHANNELS 6 Xposition Yposition Zposition Zrotation Xrotation Yrotation
      JOINT Chest3
      {
        OFFSET 0 9.9351 -2.2114
        CHANNELS 6 Xposition Yposition Zposition Zrotation Xrotation Yrotation
        JOINT Neck
        {
          OFFSET 0 22.3885 -0.4656
          CHANNELS 6 Xposition Yposition Zposition Zrotation Xrotation Yrotation
          JOINT Head
          {
            OFFSET -0.0001 12.643 3.4389
            CHANNELS 6 Xposition Yposition Zposition Zrotation Xrotation Yrotation
            End Site
            {
              OFFSET 0.0001 17.6655 0.5274
            }
          }
        }
        JOINT LeftCollar
        {
          OFFSET 2.2603 21.606 7.4023
          CHANNELS 6 Xposition Yposition Zposition Zrotation Xrotation Yrotation
          JOINT LeftShoulder
          {
            OFFSET 13.5163 -1.1332 -5.0146
            CHANNELS 6 Xposition Yposition Zposition Zrotation Xrotation Yrotation
            JOINT LeftElbow
            {
              OFFSET -0.0995 -28.05 -0.2431
              CHANNELS 6 Xposition Yposition Zposition Zrotation Xrotation Yrotation
              JOINT LeftWrist
              {
                OFFSET 0.0679 -23.3996 -0.1402
                CHANNELS 6 Xposition Yposition Zposition Zrotation Xrotation Yrotation
                JOINT LeftFinger1
                {
                  OFFSET 0.7932 -9.069 2.5189
                  CHANNELS 6 Xposition Yposition Zposition Zrotation Xrotation Yrotation
                  JOINT LeftFinger11
                  {
                    OFFSET -0.8272 -3.3923 0.5977
                    CHANNELS 6 Xposition Yposition Zposition Zrotation Xrotation Yrotation
                    JOINT LeftFinger12
                    {
                      OFFSET -0.5649 -2.3158 0.4082
                      CHANNELS 6 Xposition Yposition Zposition Zrotation Xrotation Yrotation
                      End Site
                      {
                        OFFSET -0.4919 -1.6479 0.2673
                      }
                    }
                  }
                }
                JOINT LeftFinger2
                {
                  OFFSET 0.9159 -9.2044 0.2193
                  CHANNELS 6 Xposition Yposition Zposition Zrotation Xrotation Yrotation
                  JOINT LeftFinger21
                  {
                    OFFSET 0.0117 -4.1944 -0.0248
                    CHANNELS 6 Xposition Yposition Zposition Zrotation Xrotation Yrotation
                    JOINT LeftFinger22
                    {
                      OFFSET 0.0071 -2.3249 -0.0142
                      CHANNELS 6 Xposition Yposition Zposition Zrotation Xrotation Yrotation
                      End Site
                      {
                        OFFSET -0.1475 -2.0882 0.0028
                      }
                    }
                  }
                }
                JOINT LeftFinger3
                {
                  OFFSET 0.6113 -8.7231 -2.0637
                  CHANNELS 6 Xposition Yposition Zposition Zrotation Xrotation Yrotation
                  JOINT LeftFinger31
                  {
                    OFFSET -0.1927 -3.8059 -0.2383
                    CHANNELS 6 Xposition Yposition Zposition Zrotation Xrotation Yrotation
                    JOINT LeftFinger32
                    {
                      OFFSET -0.1091 -2.1688 -0.1362
                      CHANNELS 6 Xposition Yposition Zposition Zrotation Xrotation Yrotation
                      End Site
                      {
                        OFFSET -0.2358 -1.9176 -0.0906
                      }
                    }
                  }
                }
                JOINT LeftFinger4
                {
                  OFFSET -0.6151 -8.0947 -3.5641
                  CHANNELS 6 Xposition Yposition Zposition Zrotation Xrotation Yrotation
                  JOINT LeftFinger41
                  {
                    OFFSET -0.4882 -2.341 -0.6462
                    CHANNELS 6 Xposition Yposition Zposition Zrotation Xrotation Yrotation
                    JOINT LeftFinger42
                    {
                      OFFSET -0.3575 -1.7167 -0.4742
                      CHANNELS 6 Xposition Yposition Zposition Zrotation Xrotation Yrotation
                      End Site
                      {
                        OFFSET -0.4187 -1.5237 -0.3496
                      }
                    }
                  }
                }
                JOINT LeftFinger0
                {
                  OFFSET -1.42 -1.8761 1.4223
                  CHANNELS 6 Xposition Yposition Zposition Zrotation Xrotation Yrotation
                  JOINT LeftFinger01
                  {
                    OFFSET -1.1471 -3.4929 2.6334
                    CHANNELS 6 Xposition Yposition Zposition Zrotation Xrotation Yrotation
                    JOINT LeftFinger02
                    {
                      OFFSET -0.823 -2.3 1.6571
                      CHANNELS 6 Xposition Yposition Zposition Zrotation Xrotation Yrotation
                      End Site
                      {
                        OFFSET -0.5822 -1.6914 1.1582
                      }
                    }
                  }
                }
              }
            }
          }
        }
        JOINT RightCollar
        {
          OFFSET -2.2603 21.606 7.4023
          CHANNELS 6 Xposition Yposition Zposition Zrotation Xrotation Yrotation
          JOINT RightShoulder
          {
            OFFSET -13.5187 -1.1334 -5.0155
            CHANNELS 6 Xposition Yposition Zposition Zrotation Xrotation Yrotation
            JOINT RightElbow
            {
              OFFSET 0.0994 -28.0499 -0.2431
              CHANNELS 6 Xposition Yposition Zposition Zrotation Xrotation Yrotation
              JOINT RightWrist
              {
                OFFSET -0.0679 -23.3996 -0.1402
                CHANNELS 6 Xposition Yposition Zposition Zrotation Xrotation Yrotation
                JOINT RightFinger1
                {
                  OFFSET -0.7932 -9.0691 2.5189
                  CHANNELS 6 Xposition Yposition Zposition Zrotation Xrotation Yrotation
                  JOINT RightFinger11
                  {
                    OFFSET 0.8272 -3.3923 0.5977
                    CHANNELS 6 Xposition Yposition Zposition Zrotation Xrotation Yrotation
                    JOINT RightFinger12
                    {
                      OFFSET 0.565 -2.3158 0.4082
                      CHANNELS 6 Xposition Yposition Zposition Zrotation Xrotation Yrotation
                      End Site
                      {
                        OFFSET 0.4919 -1.6479 0.2673
                      }
                    }
                  }
                }
                JOINT RightFinger2
                {
                  OFFSET -0.916 -9.2044 0.2193
                  CHANNELS 6 Xposition Yposition Zposition Zrotation Xrotation Yrotation
                  JOINT RightFinger21
                  {
                    OFFSET -0.0117 -4.1944 -0.0248
                    CHANNELS 6 Xposition Yposition Zposition Zrotation Xrotation Yrotation
                    JOINT RightFinger22
                    {
                      OFFSET -0.0071 -2.3249 -0.0142
                      CHANNELS 6 Xposition Yposition Zposition Zrotation Xrotation Yrotation
                      End Site
                      {
                        OFFSET 0.1475 -2.0882 0.0028
                      }
                    }
                  }
                }
                JOINT RightFinger3
                {
                  OFFSET -0.6113 -8.7231 -2.0637
                  CHANNELS 6 Xposition Yposition Zposition Zrotation Xrotation Yrotation
                  JOINT RightFinger31
                  {
                    OFFSET 0.1927 -3.8059 -0.2383
                    CHANNELS 6 Xposition Yposition Zposition Zrotation Xrotation Yrotation
                    JOINT RightFinger32
                    {
                      OFFSET 0.1091 -2.1688 -0.1362
                      CHANNELS 6 Xposition Yposition Zposition Zrotation Xrotation Yrotation
                      End Site
                      {
                        OFFSET 0.2358 -1.9176 -0.0906
                      }
                    }
                  }
                }
                JOINT RightFinger4
                {
                  OFFSET 0.6151 -8.0947 -3.564
                  CHANNELS 6 Xposition Yposition Zposition Zrotation Xrotation Yrotation
                  JOINT RightFinger41
                  {
                    OFFSET 0.4882 -2.341 -0.6462
                    CHANNELS 6 Xposition Yposition Zposition Zrotation Xrotation Yrotation
                    JOINT RightFinger42
                    {
                      OFFSET 0.3574 -1.7166 -0.4742
                      CHANNELS 6 Xposition Yposition Zposition Zrotation Xrotation Yrotation
                      End Site
                      {
                        OFFSET 0.4187 -1.5237 -0.3496
                      }
                    }
                  }
                }
                JOINT RightFinger0
                {
                  OFFSET 1.4199 -1.8761 1.4221
                  CHANNELS 6 Xposition Yposition Zposition Zrotation Xrotation Yrotation
                  JOINT RightFinger01
                  {
                    OFFSET 1.1472 -3.4929 2.6336
                    CHANNELS 6 Xposition Yposition Zposition Zrotation Xrotation Yrotation
                    JOINT RightFinger02
                    {
                      OFFSET 0.8229 -2.3 1.6571
                      CHANNELS 6 Xposition Yposition Zposition Zrotation Xrotation Yrotation
                      End Site
                      {
                        OFFSET 0.5822 -1.6914 1.1582
                      }
                    }
                  }
                }
              }
            }
          }
        }
      }
    }
  }
  JOINT RightHip
  {
    OFFSET -9.412 3.9771 -0.7758
    CHANNELS 6 Xposition Yposition Zposition Zrotation Xrotation Yrotation
    JOINT RightKnee
    {
      OFFSET -0.7531 -40.938 0
      CHANNELS 6 Xposition Yposition Zposition Zrotation Xrotation Yrotation
      JOINT RightAnkle
      {
        OFFSET 0 -40.1986 0
        CHANNELS 6 Xposition Yposition Zposition Zrotation Xrotation Yrotation
        JOINT RightToe
        {
          OFFSET 0 -4.4182 9.239
          CHANNELS 6 Xposition Yposition Zposition Zrotation Xrotation Yrotation
          End Site
          {
            OFFSET 0 0 6.1981
          }
        }
      }
    }
  }
  JOINT LeftHip
  {
    OFFSET 9.4119 3.9773 -0.7758
    CHANNELS 6 Xposition Yposition Zposition Zrotation Xrotation Yrotation
    JOINT LeftKnee
    {
      OFFSET 0.7532 -40.9383 0
      CHANNELS 6 Xposition Yposition Zposition Zrotation Xrotation Yrotation
      JOINT LeftAnkle
      {
        OFFSET 0 -40.1986 0
        CHANNELS 6 Xposition Yposition Zposition Zrotation Xrotation Yrotation
        JOINT LeftToe
        {
          OFFSET 0 -4.4182 9.239
          CHANNELS 6 Xposition Yposition Zposition Zrotation Xrotation Yrotation
          End Site
          {
            OFFSET 0 0 6.1981
          }
        }
      }
    }
  }
}
MOTION
Frames:	4
Frame Time:	0.0333333
-0.0648393 96.3228 8.03453 -180 -6.99617 1.41457e-007 0 8.7983 -4.7612 -0.116614 -3.27098 -0.243706 2.77556e-017 8.0291 0.4195 -0.247797 -6.54145 -0.495307 0 9.9351 -2.2114 -0.247797 -6.54144 -0.495307 0 22.3885 -0.4656 -1.48105e-007 26.8646 5.90869e-006 -0.0001 12.643 3.4389 -3.30031e-007 -37.6216 -5.39868e-007 2.2603 21.606 7.4023 -19.2136 6.35166 10.3848 13.5163 -1.1332 -5.0146 83.2953 -62.2713 3.75439 -0.0995 -28.05 -0.2431 -38.4746 -61.1397 -10.4207 0.0679 -23.3996 -0.1402 -21.2582 -11.9456 48.2495 0.7932 -9.069 2.5189 -1.91788e-006 2.65383e-006 -1.27633e-006 -0.8272 -3.3923 0.5977 -5.67645e-006 4.58135e-007 -1.13648e-005 -0.5649 -2.3158 0.4082 -3.18846e-006 -7.30852e-007 -3.31142e-006 0.9159 -9.2044 0.2193 -1.91788e-006 2.65383e-006 -1.27633e-006 0.0117 -4.1944 -0.0248 -0.012802 0.002329 8.37003e-005 0.0071 -2.3249 -0.0142 -4.96338e-006 5.29209e-006 -2.89368e-006 0.6113 -8.7231 -2.0637 -1.91788e-006 2.65383e-006 -1.27633e-006 -0.1927 -3.8059 -0.2383 -0.0160419 0.00300481 0.000836703 -0.1091 -2.1688 -0.1362 -3.18055e-015 -1.59028e-015 -0 -0.6151 -8.0947 -3.5641 -1.91788e-006 2.65383e-006 -1.27633e-006 -0.4882 -2.341 -0.6462 -0.0125723 0.00312511 0.00280973 -0.3575 -1.7167 -0.4742 9.54166e-015 -2.38542e-015 1.59028e-015 -1.42 -1.8761 1.4223 -1.91788e-006 2.65383e-006 -1.27633e-006 -1.1471 -3.4929 2.6334 -5.67645e-006 4.58135e-007 -1.13648e-005 -0.823 -2.3 1.6571 -3.18846e-006 -7.30852e-007 -3.31142e-006 -2.2603 21.606 7.4023 15.6699 4.97163 -17.3879 -13.5187 -1.1334 -5.0155 -86.6179 -76.2199 -6.94762 0.0994 -28.0499 -0.2431 28.1645 -59.7341 0.547976 -0.0679 -23.3996 -0.1402 26.8892 -16.1029 -44.6946 -0.7932 -9.0691 2.5189 1.55665e-005 1.55045e-005 4.48878e-007 0.8272 -3.3923 0.5977 3.18055e-015 -3.18055e-015 -4.77083e-015 0.565 -2.3158 0.4082 -1.37864e-005 -2.42209e-005 1.95982e-006 -0.916 -9.2044 0.2193 1.55665e-005 1.55045e-005 4.48878e-007 -0.0117 -4.1944 -0.0248 0.0129848 0.00232006 -8.40526e-005 -0.0071 -2.3249 -0.0142 6.84286e-006 4.88676e-006 1.09806e-005 -0.6113 -8.7231 -2.0637 1.55665e-005 1.55045e-005 4.48878e-007 0.1927 -3.8059 -0.2383 0.0163412 0.00301456 -0.000875383 0.1091 -2.1688 -0.1362 -1.04912e-007 1.47728e-005 -1.64559e-006 0.6151 -8.0947 -3.564 1.55665e-005 1.55045e-005 4.48878e-007 0.4882 -2.341 -0.6462 0.0145664 0.00365701 -0.00326405 0.3574 -1.7166 -0.4742 9.54166e-015 2.3059e-014 1.43125e-014 1.4199 -1.8761 1.4221 1.55665e-005 1.55045e-005 4.48878e-007 1.1472 -3.4929 2.6336 3.18055e-015 -3.18055e-015 -4.77083e-015 0.8229 -2.3 1.6571 -1.37864e-005 -2.42209e-005 1.95982e-006 -9.412 3.9771 -0.7758 -73.6023 -66.0355 -68.0945 -0.7531 -40.938 1.42109e-014 82.1504 28.6834 -95.899 0 -40.1986 0 -23.3817 10.6316 32.0674 0 -4.4182 9.23901 -2.10524e-008 -8.43834e-007 -2.12294e-007 9.4119 3.9773 -0.7758 78.2414 -68.2462 69.5686 0.7532 -40.9383 1.42109e-014 -102.6 30.2333 107.567 0 -40.1986 0 21.0344 8.20602 -29.9711 0 -4.4182 9.239 2.72998e-006 -2.49737e-007 1.88751e-007 
-0.0648397 96.3228 8.03453 -180 -6.99617 1.41457e-007 0 8.7983 -4.7612 -0.116614 -3.27098 -0.243706 0 8.0291 0.4195 -0.247797 -6.54145 -0.495307 0 9.9351 -2.2114 -0.247797 -6.54144 -0.495307 -5.55111e-017 22.3885 -0.4656 -3.27216e-007 26.8646 5.97983e-006 -0.0001 12.643 3.4389 -8.71626e-008 -37.6216 -3.93046e-007 2.2603 21.606 7.4023 -19.2136 6.35166 10.3848 13.5163 -1.1332 -5.0146 83.2953 -62.2714 3.75444 -0.0995 -28.05 -0.2431 -38.4745 -61.1397 -10.4207 0.0679 -23.3996 -0.1402 -21.2582 -11.9456 48.2495 0.7932 -9.069 2.5189 4.96381e-006 -2.08886e-005 2.89347e-006 -0.8272 -3.3923 0.5977 0 0 -2.38542e-015 -0.5649 -2.3158 0.4082 -6.36111e-015 7.95139e-016 -1.59028e-015 0.9159 -9.2044 0.2193 4.96381e-006 -2.08886e-005 2.89347e-006 0.0117 -4.1944 -0.0248 -0.0128321 0.00233602 9.69147e-005 0.0071 -2.3249 -0.0142 2.84849e-007 8.10886e-006 3.38856e-006 0.6113 -8.7231 -2.0637 4.96381e-006 -2.08886e-005 2.89347e-006 -0.1927 -3.8059 -0.2383 -0.0160493 0.00300242 0.000861414 -0.1091 -2.1688 -0.1362 -7.58238e-006 8.05616e-006 5.71816e-007 -0.6151 -8.0947 -3.5641 4.96381e-006 -2.08886e-005 2.89347e-006 -0.4882 -2.341 -0.6462 -0.0125833 0.00313377 0.00282605 -0.3575 -1.7167 -0.4742 -4.27205e-007 8.66453e-006 -5.08286e-006 -1.42 -1.8761 1.4223 4.96381e-006 -2.08886e-005 2.89347e-006 -1.1471 -3.4929 2.6334 0 0 -2.38542e-015 -0.823 -2.3 1.6571 -6.36111e-015 7.95139e-016 -1.59028e-015 -2.2603 21.606 7.4023 15.6699 4.97162 -17.3879 -13.5187 -1.1334 -5.0155 -86.6182 -76.22 -6.94786 0.0994 -28.0499 -0.2431 28.1645 -59.7341 0.547904 -0.0679 -23.3996 -0.1402 26.8892 -16.1029 -44.6946 -0.7932 -9.0691 2.5189 9.23895e-006 1.2009e-005 1.33606e-006 0.8272 -3.3923 0.5977 -3.1878e-006 -3.6959e-005 -8.77716e-007 0.565 -2.3158 0.4082 1.82816e-006 1.97359e-005 5.0513e-006 -0.916 -9.2044 0.2193 9.23895e-006 1.2009e-005 1.33606e-006 -0.0117 -4.1944 -0.0248 0.0129769 0.00230196 -8.95569e-005 -0.0071 -2.3249 -0.0142 9.54166e-015 -7.95139e-016 6.36111e-015 -0.6113 -8.7231 -2.0637 9.23895e-006 1.2009e-005 1.33606e-006 0.1927 -3.8059 -0.2383 0.0163537 0.0030068 -0.000868875 0.1091 -2.1688 -0.1362 -2.64834e-031 3.18055e-015 4.77083e-015 0.6151 -8.0947 -3.564 9.23895e-006 1.2009e-005 1.33606e-006 0.4882 -2.341 -0.6462 0.0145483 0.00365628 -0.00326014 0.3574 -1.7166 -0.4742 0 0 -4.77083e-015 1.4199 -1.8761 1.4221 9.23895e-006 1.2009e-005 1.33606e-006 1.1472 -3.4929 2.6336 -3.1878e-006 -3.6959e-005 -8.77716e-007 0.8229 -2.3 1.6571 1.82816e-006 1.97359e-005 5.0513e-006 -9.412 3.9771 -0.7758 -73.6023 -66.0355 -68.0945 -0.7531 -40.938 1.42109e-014 82.1504 28.6834 -95.899 0 -40.1986 0 -23.3817 10.6316 32.0674 1.42109e-014 -4.4182 9.239 -4.79501e-006 9.11879e-007 2.33264e-008 9.4119 3.9773 -0.7758 78.2413 -68.2462 69.5685 0.7532 -40.9383 -1.42109e-014 -102.6 30.2333 107.567 0 -40.1986 1.42109e-014 21.0345 8.20595 -29.9711 0 -4.4182 9.239 2.60414e-006 -2.39361e-007 1.02833e-006 
-0.0664015 96.3145 8.03768 180 -6.99617 -2.59616e-007 0 8.7983 -4.7612 -0.116237 -3.38729 -0.244142 2.77556e-017 8.0291 0.4195 -0.247612 -6.77404 -0.496486 5.55111e-017 9.9351 -2.2114 -0.247612 -6.77405 -0.496486 0 22.3885 -0.4656 -4.25345e-007 26.2833 8.47262e-006 -0.0001 12.643 3.4389 9.09555e-008 -35.9478 2.60668e-007 2.2603 21.606 7.4023 -19.354 6.72557 10.3769 13.5163 -1.1332 -5.0146 83.2953 -62.2714 3.75445 -0.0995 -28.05 -0.2431 -37.6888 -60.7035 -9.70822 0.0679 -23.3996 -0.1402 -21.5584 -12.0859 48.1589 0.7932 -9.069 2.5189 0 2.38542e-015 -0 -0.8272 -3.3923 0.5977 3.18055e-015 1.59028e-015 7.95139e-016 -0.5649 -2.3158 0.4082 6.36111e-015 1.59028e-015 -7.95139e-016 0.9159 -9.2044 0.2193 0 2.38542e-015 -0 0.0117 -4.1944 -0.0248 -0.0128306 0.00233106 8.08154e-005 0.0071 -2.3249 -0.0142 1.10348e-032 7.95139e-016 -7.95139e-016 0.6113 -8.7231 -2.0637 0 2.38542e-015 -0 -0.1927 -3.8059 -0.2383 -0.016067 0.00299855 0.000859117 -0.1091 -2.1688 -0.1362 -1.34901e-006 4.48724e-006 5.50257e-006 -0.6151 -8.0947 -3.5641 0 2.38542e-015 -0 -0.4882 -2.341 -0.6462 -0.0126309 0.00314511 0.00284378 -0.3575 -1.7167 -0.4742 3.18055e-015 0 -0 -1.42 -1.8761 1.4223 0 2.38542e-015 -0 -1.1471 -3.4929 2.6334 3.18055e-015 1.59028e-015 7.95139e-016 -0.823 -2.3 1.6571 6.36111e-015 1.59028e-015 -7.95139e-016 -2.2603 21.606 7.4023 15.7757 5.3953 -17.2773 -13.5187 -1.1334 -5.0155 -86.6178 -76.2198 -6.94748 0.0994 -28.0499 -0.2431 27.5021 -59.1606 -0.0475217 -0.0679 -23.3996 -0.1402 27.1956 -16.2805 -44.56 -0.7932 -9.0691 2.5189 -4.38436e-006 -2.47234e-005 3.94627e-006 0.8272 -3.3923 0.5977 -1.32417e-031 -4.77083e-015 -1.59028e-015 0.565 -2.3158 0.4082 -3.18055e-015 -3.18055e-015 -3.18055e-015 -0.916 -9.2044 0.2193 -4.38436e-006 -2.47234e-005 3.94627e-006 -0.0117 -4.1944 -0.0248 0.0129947 0.00233071 -8.86976e-005 -0.0071 -2.3249 -0.0142 3.18055e-015 -7.95139e-016 -3.18055e-015 -0.6113 -8.7231 -2.0637 -4.38436e-006 -2.47234e-005 3.94627e-006 0.1927 -3.8059 -0.2383 0.0163136 0.00305447 -0.000867999 0.1091 -2.1688 -0.1362 -1.38515e-005 -2.41855e-005 2.96443e-006 0.6151 -8.0947 -3.564 -4.38436e-006 -2.47234e-005 3.94627e-006 0.4882 -2.341 -0.6462 0.0145692 0.00369516 -0.00326646 0.3574 -1.7166 -0.4742 3.18055e-015 -3.97569e-015 -0 1.4199 -1.8761 1.4221 -4.38436e-006 -2.47234e-005 3.94627e-006 1.1472 -3.4929 2.6336 -1.32417e-031 -4.77083e-015 -1.59028e-015 0.8229 -2.3 1.6571 -3.18055e-015 -3.18055e-015 -3.18055e-015 -9.412 3.9771 -0.7758 -74.3002 -66.351 -68.4973 -0.7531 -40.938 -1.42109e-014 82.1933 28.6863 -95.948 1.42109e-014 -40.1986 -7.10543e-015 -23.1436 10.9559 31.7606 1.42109e-014 -4.4182 9.239 -7.8023e-015 1.59028e-015 -3.97569e-016 9.4119 3.9773 -0.7758 79.0997 -68.5173 70.2627 0.7532 -40.9383 1.42109e-014 -102.326 30.2462 107.476 -1.42109e-014 -40.1986 0 20.907 8.62103 -29.7654 0 -4.4182 9.239 -2.51167e-007 -8.68757e-007 1.67926e-006 
-0.0676723 96.3077 8.04023 -180 -6.99618 1.90535e-007 0 8.7983 -4.7612 -0.115926 -3.48246 -0.244491 0 8.0291 0.4195 -0.247459 -6.96437 -0.49744 0 9.9351 -2.2114 -0.24746 -6.96438 -0.497441 1.11022e-016 22.3885 -0.4656 5.99456e-008 25.8073 1.04247e-006 -0.0001 12.643 3.4389 -1.53467e-008 -34.5741 -3.48065e-007 2.2603 21.606 7.4023 -19.4689 7.03145 10.3711 13.5163 -1.1332 -5.0146 83.2953 -62.2714 3.75447 -0.0995 -28.05 -0.2431 -37.0623 -60.3428 -9.14185 0.0679 -23.3996 -0.1402 -21.8045 -12.2005 48.0842 0.7932 -9.069 2.5189 -2.88249e-007 -1.66593e-005 -3.38802e-006 -0.8272 -3.3923 0.5977 -3.04243e-006 3.26097e-006 -1.61679e-006 -0.5649 -2.3158 0.4082 -8.7864e-006 1.78156e-006 7.77482e-006 0.9159 -9.2044 0.2193 -2.88249e-007 -1.66593e-005 -3.38802e-006 0.0117 -4.1944 -0.0248 -0.0128436 0.00234158 9.40217e-005 0.0071 -2.3249 -0.0142 -3.18676e-006 -6.44397e-006 -3.31092e-006 0.6113 -8.7231 -2.0637 -2.88249e-007 -1.66593e-005 -3.38802e-006 -0.1927 -3.8059 -0.2383 -0.0160603 0.00299628 0.000845802 -0.1091 -2.1688 -0.1362 -9.07436e-006 8.36538e-006 4.38629e-006 -0.6151 -8.0947 -3.5641 -2.88249e-007 -1.66593e-005 -3.38802e-006 -0.4882 -2.341 -0.6462 -0.0126466 0.00314367 0.00284854 -0.3575 -1.7167 -0.4742 1.43996e-007 2.44196e-006 1.69403e-006 -1.42 -1.8761 1.4223 -2.88249e-007 -1.66593e-005 -3.38802e-006 -1.1471 -3.4929 2.6334 -3.04243e-006 3.26097e-006 -1.61679e-006 -0.823 -2.3 1.6571 -8.7864e-006 1.78156e-006 7.77482e-006 -2.2603 21.606 7.4023 15.8617 5.74205 -17.1873 -13.5187 -1.1334 -5.0155 -86.6181 -76.22 -6.94781 0.0994 -28.0499 -0.2431 26.9767 -58.6883 -0.518142 -0.0679 -23.3996 -0.1402 27.447 -16.4253 -44.449 -0.7932 -9.0691 2.5189 -6.39018e-006 -2.21403e-005 -1.74733e-006 0.8272 -3.3923 0.5977 6.39018e-006 2.21403e-005 1.74733e-006 0.565 -2.3158 0.4082 -6.28279e-006 -1.84675e-005 -1.0216e-007 -0.916 -9.2044 0.2193 -6.39018e-006 -2.21403e-005 -1.74733e-006 -0.0117 -4.1944 -0.0248 0.012985 0.00232264 -8.11185e-005 -0.0071 -2.3249 -0.0142 1.22837e-005 1.88269e-005 -2.0857e-006 -0.6113 -8.7231 -2.0637 -6.39018e-006 -2.21403e-005 -1.74733e-006 0.1927 -3.8059 -0.2383 0.0163152 0.00302493 -0.000874991 0.1091 -2.1688 -0.1362 3.23641e-006 4.92489e-006 3.51882e-006 0.6151 -8.0947 -3.564 -6.39018e-006 -2.21403e-005 -1.74733e-006 0.4882 -2.341 -0.6462 0.0146258 0.0037032 -0.00326532 0.3574 -1.7166 -0.4742 9.54166e-015 3.97569e-015 -4.77083e-015 1.4199 -1.8761 1.4221 -6.39018e-006 -2.21403e-005 -1.74733e-006 1.1472 -3.4929 2.6336 6.39018e-006 2.21403e-005 1.74733e-006 0.8229 -2.3 1.6571 -6.28279e-006 -1.84675e-005 -1.0216e-007 -9.412 3.9771 -0.7758 -74.883 -66.6077 -68.8387 -0.7531 -40.938 0 82.2286 28.6886 -95.9882 -1.42109e-014 -40.1986 1.42109e-014 -22.9473 11.2204 31.508 0 -4.4182 9.239 -1.23235e-005 2.06438e-006 3.30491e-007 9.4119 3.9773 -0.7758 79.8161 -68.7364 70.8449 0.7532 -40.9383 0 -102.101 30.2563 107.402 -1.42109e-014 -40.1986 0 20.8016 8.96026 -29.5962 0 -4.4182 9.239 -1.88041e-007 8.14524e-007 1.25951e-006 
